# xmcd
#
# Track frame offsets:
#	150
#	16857
#	35895
#	49202
#	66082
#	82445
#	97732
#	111665
#	125322
#	142260
#	162275
#	176012
#	188687
#	200787
#	215397
#
# Disc length: 3088 seconds
#
# Revision: 1
# Processed by: cddbd v1.5.1PL0 Copyright (c) Steve Scherf et al.
# Submitted via: audiograbber 1.82.02
#
DISCID=e40c0e0f
DTITLE=Fresh Kid Ice - Still Nasty
DYEAR=2000
DGENRE=Rap
TTITLE0=Still Nasty (As I Wanna Be)
TTITLE1=Shake Junt Queen
TTITLE2=We Like To Fuck
TTITLE3=Gimmie The Pussy
TTITLE4=I Wanna Dance Yall
TTITLE5=Suck The Dick
TTITLE6=Drop (Ya Draws)
TTITLE7=All My Girls (Where U At)
TTITLE8=All My Niggas (Ride)
TTITLE9=Chinaman (In Ya Life)
TTITLE10=Get It - Get It
TTITLE11=Miami Bass
TTITLE12=All Stars In Da House
TTITLE13=Hating Ass Niggas
TTITLE14=Get Laid - Get Fucked
EXTD=
EXTT0=
EXTT1=
EXTT2=
EXTT3=
EXTT4=
EXTT5=
EXTT6=
EXTT7=
EXTT8=
EXTT9=
EXTT10=
EXTT11=
EXTT12=
EXTT13=
EXTT14=
PLAYORDER=
